# xmcd CD database file
#
# Track frame offsets:
#	150
#	34235
#	53647
#	75982
#	87583
#	110947
#	138137
#	160928
#	184699
#	200921
#	216856
#	231531
#
# Disc length: 3361 seconds
#
# Revision: 0
# Processed by: cddbd v1.5.1PL0 Copyright (c) Steve Scherf et al.
# Submitted via: CDex 1.51
#
DISCID=ac0d1f0c
DTITLE=Luciano Biondini - Javier Girotto - TERRA MADRE
DYEAR=2005
DGENRE=Jazz
TTITLE0=Aires Tango - J. Girotto
TTITLE1=Ciudad - J. Girotto
TTITLE2=Prendere o Lasciare - L. Biondini
TTITLE3=Terra Madre - L. Biondini
TTITLE4=Desaparecidos - J. Girotto
TTITLE5=Mosaico - L. Biondini
TTITLE6=A Francy - L. Biondini
TTITLE7=Antartico - J. Girotto
TTITLE8=Choroso - L. Biondini
TTITLE9=Sorrisi - J. Girotto
TTITLE10=La abeja en el jardin - J. Girotto
TTITLE11=La luna - J. Girotto
EXTD=YEAR: 2005
EXTT0=
EXTT1=
EXTT2=
EXTT3=
EXTT4=
EXTT5=
EXTT6=
EXTT7=
EXTT8=
EXTT9=
EXTT10=
EXTT11=
PLAYORDER=
